<mxfile host="app.diagrams.net" modified="2021-03-16T11:40:20.153Z" agent="5.0 (Macintosh; Intel Mac OS X 10_15_5) AppleWebKit/605.1.15 (KHTML, like Gecko) Version/13.1.1 Safari/605.1.15" etag="itD3tdVvjuBlTflmrDQA" version="14.4.7" type="github">
  <diagram id="8phX3Mxs1kUHYDuuYzsh" name="Page-1">
    <mxGraphModel dx="3742" dy="883" grid="1" gridSize="10" guides="1" tooltips="1" connect="1" arrows="1" fold="1" page="1" pageScale="1" pageWidth="827" pageHeight="1169" math="0" shadow="0">
      <root>
        <mxCell id="0" />
        <mxCell id="1" parent="0" />
        <mxCell id="dnBnuAFGzf7L9Hc3VNLV-1" style="edgeStyle=orthogonalEdgeStyle;curved=1;orthogonalLoop=1;jettySize=auto;html=1;exitX=0.5;exitY=1;exitDx=0;exitDy=0;strokeColor=#000000;dashed=1;" edge="1" parent="1">
          <mxGeometry relative="1" as="geometry">
            <mxPoint x="-1820" y="372" as="targetPoint" />
            <mxPoint x="-1910" y="372" as="sourcePoint" />
          </mxGeometry>
        </mxCell>
        <mxCell id="dnBnuAFGzf7L9Hc3VNLV-2" value="mapping" style="text;html=1;align=center;verticalAlign=middle;resizable=0;points=[];autosize=1;" vertex="1" parent="1">
          <mxGeometry x="-1818" y="360" width="70" height="20" as="geometry" />
        </mxCell>
        <mxCell id="dnBnuAFGzf7L9Hc3VNLV-3" style="edgeStyle=orthogonalEdgeStyle;curved=1;orthogonalLoop=1;jettySize=auto;html=1;exitX=0.5;exitY=1;exitDx=0;exitDy=0;strokeColor=#000000;" edge="1" parent="1">
          <mxGeometry relative="1" as="geometry">
            <mxPoint x="-1820.0000000000002" y="412" as="targetPoint" />
            <mxPoint x="-1910.0000000000002" y="412" as="sourcePoint" />
          </mxGeometry>
        </mxCell>
        <mxCell id="dnBnuAFGzf7L9Hc3VNLV-4" value="structural containment" style="text;html=1;align=center;verticalAlign=middle;resizable=0;points=[];autosize=1;" vertex="1" parent="1">
          <mxGeometry x="-1823" y="400" width="160" height="20" as="geometry" />
        </mxCell>
        <mxCell id="dnBnuAFGzf7L9Hc3VNLV-5" value="&lt;b&gt;GENERAL ISSUES&lt;/b&gt;" style="text;html=1;align=center;verticalAlign=middle;resizable=0;points=[];autosize=1;" vertex="1" parent="1">
          <mxGeometry x="-1870" y="500" width="140" height="20" as="geometry" />
        </mxCell>
        <mxCell id="dnBnuAFGzf7L9Hc3VNLV-6" value="Compositions and Entries need a language, right now it is hardcoded to &quot;EN&quot;. One solution is the client library, since generates code by OPT, to set the language automatically in the class frm the OPT language. This works if the OPT supports just one language." style="shape=note;whiteSpace=wrap;html=1;backgroundOutline=1;darkOpacity=0.05;fillColor=#fff2cc;strokeColor=#d6b656;size=13;align=left;spacingLeft=4;" vertex="1" parent="1">
          <mxGeometry x="-1998" y="540" width="430" height="75" as="geometry" />
        </mxCell>
        <mxCell id="dnBnuAFGzf7L9Hc3VNLV-7" value="If the profile has more than one resource, it is difficult to map to one COMPOSITION in a RESTful way since FHIR does one request per resource. The workaround for now is the use the &quot;contained&quot; attribute to direct contain the children resources instead of including them by reference which is the most common option." style="shape=note;whiteSpace=wrap;html=1;backgroundOutline=1;darkOpacity=0.05;fillColor=#fff2cc;strokeColor=#d6b656;size=13;align=left;spacingLeft=4;" vertex="1" parent="1">
          <mxGeometry x="-1998" y="640" width="430" height="90" as="geometry" />
        </mxCell>
        <mxCell id="dnBnuAFGzf7L9Hc3VNLV-8" value="data point" style="ellipse;whiteSpace=wrap;html=1;aspect=fixed;fillColor=#d5e8d4;strokeColor=#82b366;" vertex="1" parent="1">
          <mxGeometry x="-1980" y="170" width="80" height="80" as="geometry" />
        </mxCell>
        <mxCell id="dnBnuAFGzf7L9Hc3VNLV-9" value="archetype" style="rounded=1;whiteSpace=wrap;html=1;fillColor=#ffe6cc;strokeColor=#d79b00;" vertex="1" parent="1">
          <mxGeometry x="-1865" y="180" width="125" height="60" as="geometry" />
        </mxCell>
        <mxCell id="dnBnuAFGzf7L9Hc3VNLV-10" value="template" style="rounded=1;whiteSpace=wrap;html=1;fillColor=#dae8fc;strokeColor=#6c8ebf;" vertex="1" parent="1">
          <mxGeometry x="-1710" y="180" width="120" height="60" as="geometry" />
        </mxCell>
        <mxCell id="dnBnuAFGzf7L9Hc3VNLV-11" value="profile" style="rounded=1;whiteSpace=wrap;html=1;fillColor=#f8cecc;strokeColor=#b85450;" vertex="1" parent="1">
          <mxGeometry x="-1865" y="270" width="124.5" height="60" as="geometry" />
        </mxCell>
        <mxCell id="dnBnuAFGzf7L9Hc3VNLV-12" value="note" style="shape=note;whiteSpace=wrap;html=1;backgroundOutline=1;darkOpacity=0.05;fillColor=#fff2cc;strokeColor=#d6b656;size=13;align=left;spacingLeft=4;" vertex="1" parent="1">
          <mxGeometry x="-1710" y="272.5" width="120" height="57.5" as="geometry" />
        </mxCell>
        <mxCell id="dnBnuAFGzf7L9Hc3VNLV-13" value="REFERENCE" style="text;html=1;align=center;verticalAlign=middle;resizable=0;points=[];autosize=1;fontStyle=1" vertex="1" parent="1">
          <mxGeometry x="-1852.5" y="120" width="100" height="20" as="geometry" />
        </mxCell>
        <mxCell id="dnBnuAFGzf7L9Hc3VNLV-14" value="reference" style="ellipse;whiteSpace=wrap;html=1;aspect=fixed;fillColor=#e1d5e7;strokeColor=#9673a6;" vertex="1" parent="1">
          <mxGeometry x="-1980" y="260" width="80" height="80" as="geometry" />
        </mxCell>
        <mxCell id="dnBnuAFGzf7L9Hc3VNLV-15" value="resource" style="rounded=1;whiteSpace=wrap;html=1;fillColor=#f5f5f5;strokeColor=#666666;fontColor=#333333;" vertex="1" parent="1">
          <mxGeometry x="-1568" y="270" width="124.5" height="60" as="geometry" />
        </mxCell>
        <mxCell id="dnBnuAFGzf7L9Hc3VNLV-16" value="https://simplifier.net/forschungsnetzcovid-19/symptomscovid19-profile" style="shape=note;whiteSpace=wrap;html=1;backgroundOutline=1;darkOpacity=0.05;fillColor=#fff2cc;strokeColor=#d6b656;size=13;align=left;spacingLeft=4;" vertex="1" parent="1">
          <mxGeometry x="-1360" y="950" width="360" height="60" as="geometry" />
        </mxCell>
        <mxCell id="dnBnuAFGzf7L9Hc3VNLV-17" style="edgeStyle=orthogonalEdgeStyle;curved=1;orthogonalLoop=1;jettySize=auto;html=1;exitX=0.5;exitY=1;exitDx=0;exitDy=0;strokeColor=#000000;entryX=0.5;entryY=0;entryDx=0;entryDy=0;" edge="1" parent="1" source="dnBnuAFGzf7L9Hc3VNLV-22" target="dnBnuAFGzf7L9Hc3VNLV-61">
          <mxGeometry relative="1" as="geometry">
            <mxPoint x="-1020" y="1110" as="targetPoint" />
          </mxGeometry>
        </mxCell>
        <mxCell id="dnBnuAFGzf7L9Hc3VNLV-18" style="edgeStyle=orthogonalEdgeStyle;curved=1;orthogonalLoop=1;jettySize=auto;html=1;exitX=0.5;exitY=1;exitDx=0;exitDy=0;strokeColor=#000000;entryX=0.5;entryY=0;entryDx=0;entryDy=0;" edge="1" parent="1" source="dnBnuAFGzf7L9Hc3VNLV-22" target="dnBnuAFGzf7L9Hc3VNLV-57">
          <mxGeometry relative="1" as="geometry">
            <mxPoint x="-925" y="1120" as="targetPoint" />
          </mxGeometry>
        </mxCell>
        <mxCell id="dnBnuAFGzf7L9Hc3VNLV-19" style="edgeStyle=orthogonalEdgeStyle;curved=1;orthogonalLoop=1;jettySize=auto;html=1;exitX=0.5;exitY=1;exitDx=0;exitDy=0;entryX=0.5;entryY=0;entryDx=0;entryDy=0;strokeColor=#000000;" edge="1" parent="1" source="dnBnuAFGzf7L9Hc3VNLV-22" target="dnBnuAFGzf7L9Hc3VNLV-37">
          <mxGeometry relative="1" as="geometry" />
        </mxCell>
        <mxCell id="dnBnuAFGzf7L9Hc3VNLV-20" style="edgeStyle=orthogonalEdgeStyle;curved=1;orthogonalLoop=1;jettySize=auto;html=1;exitX=0.5;exitY=1;exitDx=0;exitDy=0;entryX=0.5;entryY=0;entryDx=0;entryDy=0;strokeColor=#000000;" edge="1" parent="1" source="dnBnuAFGzf7L9Hc3VNLV-22" target="dnBnuAFGzf7L9Hc3VNLV-38">
          <mxGeometry relative="1" as="geometry" />
        </mxCell>
        <mxCell id="dnBnuAFGzf7L9Hc3VNLV-22" value="&lt;div class=&quot;cm-node-details-value cm-node-details-templ-id&quot;&gt;Symptom &amp;nbsp;- Condition&lt;/div&gt;" style="rounded=1;whiteSpace=wrap;html=1;fillColor=#f8cecc;strokeColor=#b85450;" vertex="1" parent="1">
          <mxGeometry x="-970" y="950" width="200" height="60" as="geometry" />
        </mxCell>
        <mxCell id="dnBnuAFGzf7L9Hc3VNLV-23" value="https://simplifier.net/medizininformatikinitiative-modullabor/diagnosticreportlab" style="shape=note;whiteSpace=wrap;html=1;backgroundOutline=1;darkOpacity=0.05;fillColor=#fff2cc;strokeColor=#d6b656;size=13;align=left;spacingLeft=4;" vertex="1" parent="1">
          <mxGeometry x="-1360" y="950" width="360" height="60" as="geometry" />
        </mxCell>
        <mxCell id="dnBnuAFGzf7L9Hc3VNLV-36" value="code: code" style="ellipse;whiteSpace=wrap;html=1;aspect=fixed;fillColor=#d5e8d4;strokeColor=#82b366;" vertex="1" parent="1">
          <mxGeometry x="-960" y="1260" width="80" height="80" as="geometry" />
        </mxCell>
        <mxCell id="dnBnuAFGzf7L9Hc3VNLV-37" value="subject: ref" style="ellipse;whiteSpace=wrap;html=1;aspect=fixed;fillColor=#e1d5e7;strokeColor=#9673a6;" vertex="1" parent="1">
          <mxGeometry x="-860" y="1110" width="80" height="80" as="geometry" />
        </mxCell>
        <mxCell id="dnBnuAFGzf7L9Hc3VNLV-38" value="effective: dateTime" style="ellipse;whiteSpace=wrap;html=1;aspect=fixed;fillColor=#d5e8d4;strokeColor=#82b366;" vertex="1" parent="1">
          <mxGeometry x="-760" y="1110" width="80" height="80" as="geometry" />
        </mxCell>
        <mxCell id="dnBnuAFGzf7L9Hc3VNLV-56" value="code: code" style="ellipse;whiteSpace=wrap;html=1;aspect=fixed;fillColor=#d5e8d4;strokeColor=#82b366;" vertex="1" parent="1">
          <mxGeometry x="-1180" y="1410" width="80" height="80" as="geometry" />
        </mxCell>
        <mxCell id="dnBnuAFGzf7L9Hc3VNLV-57" value="verification-Status:&lt;br&gt;Codeable-&lt;br&gt;Concept" style="ellipse;whiteSpace=wrap;html=1;aspect=fixed;fillColor=#d5e8d4;strokeColor=#82b366;" vertex="1" parent="1">
          <mxGeometry x="-960" y="1110" width="80" height="80" as="geometry" />
        </mxCell>
        <mxCell id="dnBnuAFGzf7L9Hc3VNLV-60" value="coding:&amp;nbsp;&lt;br&gt;Coding" style="ellipse;whiteSpace=wrap;html=1;aspect=fixed;fillColor=#d5e8d4;strokeColor=#82b366;" vertex="1" parent="1">
          <mxGeometry x="-1180" y="1250" width="80" height="80" as="geometry" />
        </mxCell>
        <mxCell id="dnBnuAFGzf7L9Hc3VNLV-61" value="Category:&lt;br&gt;Codeable&lt;br&gt;Concept" style="ellipse;whiteSpace=wrap;html=1;aspect=fixed;fillColor=#d5e8d4;strokeColor=#82b366;" vertex="1" parent="1">
          <mxGeometry x="-1180" y="1110" width="80" height="80" as="geometry" />
        </mxCell>
        <mxCell id="dnBnuAFGzf7L9Hc3VNLV-62" value="code: code" style="ellipse;whiteSpace=wrap;html=1;aspect=fixed;fillColor=#d5e8d4;strokeColor=#82b366;" vertex="1" parent="1">
          <mxGeometry x="-1310" y="1110" width="80" height="80" as="geometry" />
        </mxCell>
        <mxCell id="dnBnuAFGzf7L9Hc3VNLV-63" value="coding:&amp;nbsp;&lt;br&gt;Coding" style="ellipse;whiteSpace=wrap;html=1;aspect=fixed;fillColor=#d5e8d4;strokeColor=#82b366;" vertex="1" parent="1">
          <mxGeometry x="-1310" y="1250" width="80" height="80" as="geometry" />
        </mxCell>
        <mxCell id="dnBnuAFGzf7L9Hc3VNLV-64" value="Problem&lt;br&gt;Diagnose&lt;br&gt;DefiningCode:&lt;br&gt;Enum" style="ellipse;whiteSpace=wrap;html=1;aspect=fixed;fillColor=#d5e8d4;strokeColor=#82b366;" vertex="1" parent="1">
          <mxGeometry x="-1130" y="1714" width="80" height="80" as="geometry" />
        </mxCell>
        <mxCell id="dnBnuAFGzf7L9Hc3VNLV-65" value="&lt;p&gt;openEHR-EHR-EVALUATION.exclusion_specific.v1&lt;br&gt;&lt;/p&gt;" style="rounded=1;whiteSpace=wrap;html=1;fillColor=#ffe6cc;strokeColor=#d79b00;" vertex="1" parent="1">
          <mxGeometry x="-1140" y="1890" width="240" height="60" as="geometry" />
        </mxCell>
        <mxCell id="dnBnuAFGzf7L9Hc3VNLV-67" value="bodysite:&lt;br&gt;Codeable-&lt;br&gt;Concept" style="ellipse;whiteSpace=wrap;html=1;aspect=fixed;fillColor=#d5e8d4;strokeColor=#82b366;" vertex="1" parent="1">
          <mxGeometry x="-510" y="1110" width="80" height="80" as="geometry" />
        </mxCell>
        <mxCell id="dnBnuAFGzf7L9Hc3VNLV-69" value="coding:&amp;nbsp;&lt;br&gt;Coding" style="ellipse;whiteSpace=wrap;html=1;aspect=fixed;fillColor=#d5e8d4;strokeColor=#82b366;" vertex="1" parent="1">
          <mxGeometry x="-510" y="1260" width="80" height="80" as="geometry" />
        </mxCell>
        <mxCell id="dnBnuAFGzf7L9Hc3VNLV-70" value="code: code" style="ellipse;whiteSpace=wrap;html=1;aspect=fixed;fillColor=#d5e8d4;strokeColor=#82b366;" vertex="1" parent="1">
          <mxGeometry x="-510" y="1410" width="80" height="80" as="geometry" />
        </mxCell>
        <mxCell id="dnBnuAFGzf7L9Hc3VNLV-71" value="lokalisation:&lt;br&gt;Enum" style="ellipse;whiteSpace=wrap;html=1;aspect=fixed;fillColor=#d5e8d4;strokeColor=#82b366;" vertex="1" parent="1">
          <mxGeometry x="-540" y="1714" width="80" height="80" as="geometry" />
        </mxCell>
        <mxCell id="dnBnuAFGzf7L9Hc3VNLV-73" value="&lt;p&gt;openEHR-EHR-OBSERVATION.symptom_sign.v0&lt;br&gt;&lt;/p&gt;" style="rounded=1;whiteSpace=wrap;html=1;fillColor=#ffe6cc;strokeColor=#d79b00;" vertex="1" parent="1">
          <mxGeometry x="-670" y="1890" width="240" height="60" as="geometry" />
        </mxCell>
        <mxCell id="dnBnuAFGzf7L9Hc3VNLV-74" value="severity:&amp;nbsp;&lt;br&gt;Codeable-&lt;br&gt;Concept" style="ellipse;whiteSpace=wrap;html=1;aspect=fixed;fillColor=#d5e8d4;strokeColor=#82b366;" vertex="1" parent="1">
          <mxGeometry x="-370" y="1110" width="80" height="80" as="geometry" />
        </mxCell>
        <mxCell id="dnBnuAFGzf7L9Hc3VNLV-75" value="schweregrad:&lt;br&gt;Enum" style="ellipse;whiteSpace=wrap;html=1;aspect=fixed;fillColor=#d5e8d4;strokeColor=#82b366;" vertex="1" parent="1">
          <mxGeometry x="-290" y="1714" width="80" height="80" as="geometry" />
        </mxCell>
        <mxCell id="dnBnuAFGzf7L9Hc3VNLV-76" value="event time: DateTime" style="ellipse;whiteSpace=wrap;html=1;aspect=fixed;fillColor=#d5e8d4;strokeColor=#82b366;" vertex="1" parent="1">
          <mxGeometry x="-660" y="1714" width="80" height="80" as="geometry" />
        </mxCell>
        <mxCell id="dnBnuAFGzf7L9Hc3VNLV-78" value="&lt;pre style=&quot;font-style: normal ; font-weight: normal ; letter-spacing: normal ; text-indent: 0px ; text-transform: none ; word-spacing: 0px ; text-decoration: none ; background-color: rgb(43 , 43 , 43) ; color: rgb(169 , 183 , 198) ; font-family: &amp;#34;menlo&amp;#34; ; font-size: 9pt&quot;&gt;&lt;br&gt;&lt;/pre&gt;" style="text;whiteSpace=wrap;html=1;" vertex="1" parent="1">
          <mxGeometry x="-970" y="1530" width="100" height="50" as="geometry" />
        </mxCell>
        <mxCell id="dnBnuAFGzf7L9Hc3VNLV-80" value="&lt;p&gt;openEHR-EHR-EVALUATION.absence.v2&lt;br&gt;&lt;/p&gt;" style="rounded=1;whiteSpace=wrap;html=1;fillColor=#ffe6cc;strokeColor=#d79b00;" vertex="1" parent="1">
          <mxGeometry x="-1470" y="1890" width="240" height="60" as="geometry" />
        </mxCell>
        <mxCell id="dnBnuAFGzf7L9Hc3VNLV-82" value="Unbekanntes-Symptom:&lt;br&gt;Enum" style="ellipse;whiteSpace=wrap;html=1;aspect=fixed;fillColor=#d5e8d4;strokeColor=#82b366;" vertex="1" parent="1">
          <mxGeometry x="-1490" y="1720" width="80" height="80" as="geometry" />
        </mxCell>
        <mxCell id="dnBnuAFGzf7L9Hc3VNLV-87" value="GECCO Symptom" style="rounded=1;whiteSpace=wrap;html=1;fillColor=#dae8fc;strokeColor=#6c8ebf;" vertex="1" parent="1">
          <mxGeometry x="-920" y="2230" width="120" height="60" as="geometry" />
        </mxCell>
        <mxCell id="dnBnuAFGzf7L9Hc3VNLV-89" value="&lt;div class=&quot;cm-node-details-value cm-node-details-arch-id&quot;&gt;openEHR-EHR-COMPOSITION.registereintrag.v1&lt;/div&gt;" style="rounded=1;whiteSpace=wrap;html=1;fillColor=#ffe6cc;strokeColor=#d79b00;direction=east;" vertex="1" parent="1">
          <mxGeometry x="-960" y="2060" width="200" height="60" as="geometry" />
        </mxCell>
        <mxCell id="dnBnuAFGzf7L9Hc3VNLV-90" value="Krankheits-&lt;br&gt;zeichen:&lt;br&gt;Enum" style="ellipse;whiteSpace=wrap;html=1;aspect=fixed;fillColor=#d5e8d4;strokeColor=#82b366;" vertex="1" parent="1">
          <mxGeometry x="-413" y="1714" width="80" height="80" as="geometry" />
        </mxCell>
        <mxCell id="dnBnuAFGzf7L9Hc3VNLV-91" value="Datum/Uhrzeit&amp;nbsp;&lt;br&gt;desRückgangs-&lt;br&gt;Value" style="ellipse;whiteSpace=wrap;html=1;aspect=fixed;fillColor=#d5e8d4;strokeColor=#82b366;" vertex="1" parent="1">
          <mxGeometry x="-150" y="1720" width="80" height="80" as="geometry" />
        </mxCell>
        <mxCell id="dnBnuAFGzf7L9Hc3VNLV-92" value="abatementDate&lt;br&gt;TimeType:&lt;br&gt;datetime" style="ellipse;whiteSpace=wrap;html=1;aspect=fixed;fillColor=#d5e8d4;strokeColor=#82b366;" vertex="1" parent="1">
          <mxGeometry x="-230" y="1110" width="80" height="80" as="geometry" />
        </mxCell>
        <mxCell id="dnBnuAFGzf7L9Hc3VNLV-96" value="code: code" style="ellipse;whiteSpace=wrap;html=1;aspect=fixed;fillColor=#d5e8d4;strokeColor=#82b366;" vertex="1" parent="1">
          <mxGeometry x="-1310" y="1410" width="80" height="80" as="geometry" />
        </mxCell>
        <mxCell id="dnBnuAFGzf7L9Hc3VNLV-97" value="AussageUber-denAusschluss:&lt;br&gt;Enum" style="ellipse;whiteSpace=wrap;html=1;aspect=fixed;fillColor=#d5e8d4;strokeColor=#82b366;" vertex="1" parent="1">
          <mxGeometry x="-990" y="1714" width="80" height="80" as="geometry" />
        </mxCell>
        <mxCell id="dnBnuAFGzf7L9Hc3VNLV-98" value="AussageuberDie-fehlende-Information:&lt;br&gt;Enum" style="ellipse;whiteSpace=wrap;html=1;aspect=fixed;fillColor=#d5e8d4;strokeColor=#82b366;" vertex="1" parent="1">
          <mxGeometry x="-1340" y="1720" width="80" height="80" as="geometry" />
        </mxCell>
        <mxCell id="dnBnuAFGzf7L9Hc3VNLV-99" style="edgeStyle=orthogonalEdgeStyle;curved=1;orthogonalLoop=1;jettySize=auto;html=1;exitX=0.5;exitY=1;exitDx=0;exitDy=0;strokeColor=#000000;entryX=0.5;entryY=0;entryDx=0;entryDy=0;" edge="1" parent="1" source="dnBnuAFGzf7L9Hc3VNLV-22" target="dnBnuAFGzf7L9Hc3VNLV-62">
          <mxGeometry relative="1" as="geometry">
            <mxPoint x="-1180" y="1070" as="sourcePoint" />
            <mxPoint x="-1450" y="1170" as="targetPoint" />
          </mxGeometry>
        </mxCell>
        <mxCell id="dnBnuAFGzf7L9Hc3VNLV-100" style="edgeStyle=orthogonalEdgeStyle;curved=1;orthogonalLoop=1;jettySize=auto;html=1;exitX=0.5;exitY=1;exitDx=0;exitDy=0;entryX=0.5;entryY=0;entryDx=0;entryDy=0;strokeColor=#000000;" edge="1" parent="1" source="dnBnuAFGzf7L9Hc3VNLV-22" target="dnBnuAFGzf7L9Hc3VNLV-74">
          <mxGeometry relative="1" as="geometry">
            <mxPoint x="-510" y="1050" as="sourcePoint" />
            <mxPoint x="-260" y="1150" as="targetPoint" />
            <Array as="points">
              <mxPoint x="-870" y="1050" />
              <mxPoint x="-330" y="1050" />
            </Array>
          </mxGeometry>
        </mxCell>
        <mxCell id="dnBnuAFGzf7L9Hc3VNLV-101" style="edgeStyle=orthogonalEdgeStyle;curved=1;orthogonalLoop=1;jettySize=auto;html=1;exitX=0.5;exitY=1;exitDx=0;exitDy=0;entryX=0.5;entryY=0;entryDx=0;entryDy=0;strokeColor=#000000;" edge="1" parent="1" source="dnBnuAFGzf7L9Hc3VNLV-22" target="dnBnuAFGzf7L9Hc3VNLV-67">
          <mxGeometry relative="1" as="geometry">
            <mxPoint x="-500" y="1090" as="sourcePoint" />
            <mxPoint x="-250" y="1190" as="targetPoint" />
            <Array as="points">
              <mxPoint x="-870" y="1060" />
              <mxPoint x="-470" y="1060" />
            </Array>
          </mxGeometry>
        </mxCell>
        <mxCell id="dnBnuAFGzf7L9Hc3VNLV-102" style="edgeStyle=orthogonalEdgeStyle;curved=1;orthogonalLoop=1;jettySize=auto;html=1;exitX=0.5;exitY=1;exitDx=0;exitDy=0;entryX=0.5;entryY=0;entryDx=0;entryDy=0;strokeColor=#000000;" edge="1" parent="1" source="dnBnuAFGzf7L9Hc3VNLV-22" target="dnBnuAFGzf7L9Hc3VNLV-92">
          <mxGeometry relative="1" as="geometry">
            <mxPoint x="-250" y="1060" as="sourcePoint" />
            <mxPoint y="1160" as="targetPoint" />
            <Array as="points">
              <mxPoint x="-870" y="1040" />
              <mxPoint x="-190" y="1040" />
            </Array>
          </mxGeometry>
        </mxCell>
        <mxCell id="dnBnuAFGzf7L9Hc3VNLV-105" value="" style="endArrow=classic;html=1;exitX=0.5;exitY=1;exitDx=0;exitDy=0;entryX=0.5;entryY=0;entryDx=0;entryDy=0;" edge="1" parent="1" source="dnBnuAFGzf7L9Hc3VNLV-62" target="dnBnuAFGzf7L9Hc3VNLV-63">
          <mxGeometry width="50" height="50" relative="1" as="geometry">
            <mxPoint x="-1250" y="1229" as="sourcePoint" />
            <mxPoint x="-1190" y="1169" as="targetPoint" />
          </mxGeometry>
        </mxCell>
        <mxCell id="dnBnuAFGzf7L9Hc3VNLV-106" value="" style="endArrow=classic;html=1;exitX=0.5;exitY=1;exitDx=0;exitDy=0;entryX=0.5;entryY=0;entryDx=0;entryDy=0;" edge="1" parent="1" source="dnBnuAFGzf7L9Hc3VNLV-63" target="dnBnuAFGzf7L9Hc3VNLV-96">
          <mxGeometry width="50" height="50" relative="1" as="geometry">
            <mxPoint x="-1270.67" y="1340" as="sourcePoint" />
            <mxPoint x="-1270.67" y="1400" as="targetPoint" />
          </mxGeometry>
        </mxCell>
        <mxCell id="dnBnuAFGzf7L9Hc3VNLV-108" value="" style="endArrow=classic;html=1;exitX=0.5;exitY=1;exitDx=0;exitDy=0;entryX=0.5;entryY=0;entryDx=0;entryDy=0;" edge="1" parent="1">
          <mxGeometry width="50" height="50" relative="1" as="geometry">
            <mxPoint x="-1141.33" y="1190" as="sourcePoint" />
            <mxPoint x="-1141.33" y="1250" as="targetPoint" />
          </mxGeometry>
        </mxCell>
        <mxCell id="dnBnuAFGzf7L9Hc3VNLV-109" value="" style="endArrow=classic;html=1;exitX=0.5;exitY=1;exitDx=0;exitDy=0;entryX=0.5;entryY=0;entryDx=0;entryDy=0;" edge="1" parent="1" source="dnBnuAFGzf7L9Hc3VNLV-60" target="dnBnuAFGzf7L9Hc3VNLV-56">
          <mxGeometry width="50" height="50" relative="1" as="geometry">
            <mxPoint x="-1140" y="1370" as="sourcePoint" />
            <mxPoint x="-1140" y="1390" as="targetPoint" />
          </mxGeometry>
        </mxCell>
        <mxCell id="dnBnuAFGzf7L9Hc3VNLV-110" value="" style="endArrow=classic;html=1;exitX=0.5;exitY=1;exitDx=0;exitDy=0;entryX=0.5;entryY=0;entryDx=0;entryDy=0;" edge="1" parent="1" source="dnBnuAFGzf7L9Hc3VNLV-57" target="dnBnuAFGzf7L9Hc3VNLV-36">
          <mxGeometry width="50" height="50" relative="1" as="geometry">
            <mxPoint x="-920" y="1210" as="sourcePoint" />
            <mxPoint x="-920" y="1250" as="targetPoint" />
          </mxGeometry>
        </mxCell>
        <mxCell id="dnBnuAFGzf7L9Hc3VNLV-111" value="" style="endArrow=classic;html=1;exitX=0.5;exitY=1;exitDx=0;exitDy=0;entryX=0.5;entryY=0;entryDx=0;entryDy=0;" edge="1" parent="1" source="dnBnuAFGzf7L9Hc3VNLV-67" target="dnBnuAFGzf7L9Hc3VNLV-69">
          <mxGeometry width="50" height="50" relative="1" as="geometry">
            <mxPoint x="-470" y="1220" as="sourcePoint" />
            <mxPoint x="-470" y="1250" as="targetPoint" />
          </mxGeometry>
        </mxCell>
        <mxCell id="dnBnuAFGzf7L9Hc3VNLV-112" value="" style="endArrow=classic;html=1;exitX=0.5;exitY=1;exitDx=0;exitDy=0;entryX=0.5;entryY=0;entryDx=0;entryDy=0;" edge="1" parent="1" source="dnBnuAFGzf7L9Hc3VNLV-69" target="dnBnuAFGzf7L9Hc3VNLV-70">
          <mxGeometry width="50" height="50" relative="1" as="geometry">
            <mxPoint x="-470" y="1370" as="sourcePoint" />
            <mxPoint x="-470" y="1390" as="targetPoint" />
          </mxGeometry>
        </mxCell>
      </root>
    </mxGraphModel>
  </diagram>
</mxfile>
